<svg width="65" height="65" viewBox="0 0 65 65" fill="none" xmlns="http://www.w3.org/2000/svg">
<rect width="65" height="65" rx="15" fill="white"/>
<path d="M17.0795 21.8182H24.3409L19.7727 49.2955C19.4318 51.3068 18.7557 52.9375 17.7443 54.1875C16.733 55.4489 15.4318 56.3693 13.8409 56.9489C12.2614 57.5284 10.4432 57.8182 8.38636 57.8182C8.15909 57.8182 7.93182 57.8125 7.70455 57.8011C7.47727 57.8011 7.23295 57.7955 6.97159 57.7841L7.90909 52.108C8.07955 52.1193 8.24432 52.125 8.40341 52.125C8.5625 52.1364 8.71591 52.142 8.86364 52.142C10.0341 52.142 10.8977 51.892 11.4545 51.392C12.0114 50.892 12.375 50.1534 12.5455 49.1761L17.0795 21.8182ZM21.392 18.4432C20.3125 18.4432 19.4261 18.0852 18.733 17.3693C18.0398 16.642 17.7557 15.7727 17.8807 14.7614C18.0057 13.75 18.4943 12.8864 19.3466 12.1705C20.1989 11.4545 21.1591 11.0966 22.2273 11.0966C23.3182 11.0966 24.2045 11.4545 24.8864 12.1705C25.5682 12.8864 25.8523 13.75 25.7386 14.7614C25.625 15.7727 25.142 16.642 24.2898 17.3693C23.4489 18.0852 22.483 18.4432 21.392 18.4432ZM25.9304 48L31.7259 13.0909H45.4986C48.1349 13.0909 50.3054 13.5568 52.0099 14.4886C53.7259 15.4205 54.9304 16.7443 55.6236 18.4602C56.3281 20.1648 56.4929 22.1761 56.1179 24.4943C55.7315 26.8125 54.8963 28.8011 53.6122 30.4602C52.3395 32.1193 50.6804 33.3977 48.6349 34.2955C46.6009 35.1818 44.2429 35.625 41.5611 35.625H32.3395L33.3622 29.6932H41.3736C42.7827 29.6932 43.9872 29.5 44.9872 29.1136C45.9872 28.7273 46.777 28.1477 47.3565 27.375C47.9474 26.6023 48.3338 25.642 48.5156 24.4943C48.7088 23.3239 48.6406 22.3466 48.3111 21.5625C47.9815 20.767 47.3849 20.1648 46.5213 19.7557C45.6577 19.3352 44.5213 19.125 43.1122 19.125H38.1349L33.3111 48H25.9304ZM47.4077 32.1136L53.4588 48H45.3111L39.4474 32.1136H47.4077Z" fill="#3F89C9"/>
</svg>
